[Header]
FileType HTR
DataType HTRS
FileVersion 1
NumSegments 64
NumFrames 3
DataFrameRate 24
EulerRotationOrder ZYX
CalibrationUnits mm
RotationUnits Degrees
GlobalAxisofGravity Y
BoneLengthAxis Y
ScaleFactor 1.0
[SegmentNames&Hierarchy]
Hips	GLOBAL
Spine	Hips
Spine1	Spine
Spine2	Spine1
Neck	Spine2
Head	Neck
LeftEye	Head
RightEye	Head
LeftShoulder	Spine2
LeftArm	LeftShoulder
LeftForeArm	LeftArm
LeftHand	LeftForeArm
LeftHandThumb1	LeftHand
LeftHandThumb2	LeftHandThumb1
LeftHandThumb3	LeftHandThumb2
LeftHandThumb4	LeftHandThumb3
LeftHandIndex1	LeftHand
LeftHandIndex2	LeftHandIndex1
LeftHandIndex3	LeftHandIndex2
LeftHandIndex4	LeftHandIndex3
LeftHandMiddle1	LeftHand
LeftHandMiddle2	LeftHandMiddle1
LeftHandMiddle3	LeftHandMiddle2
LeftHandMiddle4	LeftHandMiddle3
LeftHandRing1	LeftHand
LeftHandRing2	LeftHandRing1
LeftHandRing3	LeftHandRing2
LeftHandRing4	LeftHandRing3
LeftHandPinky1	LeftHand
LeftHandPinky2	LeftHandPinky1
LeftHandPinky3	LeftHandPinky2
LeftHandPinky4	LeftHandPinky3
RightShoulder	Spine2
RightArm	RightShoulder
RightForeArm	RightArm
RightHand	RightForeArm
RightHandPinky1	RightHand
RightHandPinky2	RightHandPinky1
RightHandPinky3	RightHandPinky2
RightHandPinky4	RightHandPinky3
RightHandRing1	RightHand
RightHandRing2	RightHandRing1
RightHandRing3	RightHandRing2
RightHandRing4	RightHandRing3
RightHandMiddle1	RightHand
RightHandMiddle2	RightHandMiddle1
RightHandMiddle3	RightHandMiddle2
RightHandMiddle4	RightHandMiddle3
RightHandIndex1	RightHand
RightHandIndex2	RightHandIndex1
RightHandIndex3	RightHandIndex2
RightHandIndex4	RightHandIndex3
RightHandThumb1	RightHand
RightHandThumb2	RightHandThumb1
RightHandThumb3	RightHandThumb2
RightHandThumb4	RightHandThumb3
LeftUpLeg	Hips
LeftLeg	LeftUpLeg
LeftFoot	LeftLeg
LeftToeBase	LeftFoot
RightUpLeg	Hips
RightLeg	RightUpLeg
RightFoot	RightLeg
RightToeBase	RightFoot
[BasePosition]
Hips	0	0	0	0	0	0	1
Spine	0	0	0	0	0	0	1
Spine1	0	0	0	0	0	0	1
Spine2	0	0	0	0	0	0	1
Neck	0	0	0	0	0	0	1
Head	0	0	0	0	0	0	1
LeftEye	0	0	0	0	0	0	1
RightEye	0	0	0	0	0	0	1
LeftShoulder	0	0	0	0	0	0	1
LeftArm	0	0	0	0	0	0	1
LeftForeArm	0	0	0	0	0	0	1
LeftHand	0	0	0	0	0	0	1
LeftHandThumb1	0	0	0	0	0	0	1
LeftHandThumb2	0	0	0	0	0	0	1
LeftHandThumb3	0	0	0	0	0	0	1
LeftHandThumb4	0	0	0	0	0	0	1
LeftHandIndex1	0	0	0	0	0	0	1
LeftHandIndex2	0	0	0	0	0	0	1
LeftHandIndex3	0	0	0	0	0	0	1
LeftHandIndex4	0	0	0	0	0	0	1
LeftHandMiddle1	0	0	0	0	0	0	1
LeftHandMiddle2	0	0	0	0	0	0	1
LeftHandMiddle3	0	0	0	0	0	0	1
LeftHandMiddle4	0	0	0	0	0	0	1
LeftHandRing1	0	0	0	0	0	0	1
LeftHandRing2	0	0	0	0	0	0	1
LeftHandRing3	0	0	0	0	0	0	1
LeftHandRing4	0	0	0	0	0	0	1
LeftHandPinky1	0	0	0	0	0	0	1
LeftHandPinky2	0	0	0	0	0	0	1
LeftHandPinky3	0	0	0	0	0	0	1
LeftHandPinky4	0	0	0	0	0	0	1
RightShoulder	0	0	0	0	0	0	1
RightArm	0	0	0	0	0	0	1
RightForeArm	0	0	0	0	0	0	1
RightHand	0	0	0	0	0	0	1
RightHandPinky1	0	0	0	0	0	0	1
RightHandPinky2	0	0	0	0	0	0	1
RightHandPinky3	0	0	0	0	0	0	1
RightHandPinky4	0	0	0	0	0	0	1
RightHandRing1	0	0	0	0	0	0	1
RightHandRing2	0	0	0	0	0	0	1
RightHandRing3	0	0	0	0	0	0	1
RightHandRing4	0	0	0	0	0	0	1
RightHandMiddle1	0	0	0	0	0	0	1
RightHandMiddle2	0	0	0	0	0	0	1
RightHandMiddle3	0	0	0	0	0	0	1
RightHandMiddle4	0	0	0	0	0	0	1
RightHandIndex1	0	0	0	0	0	0	1
RightHandIndex2	0	0	0	0	0	0	1
RightHandIndex3	0	0	0	0	0	0	1
RightHandIndex4	0	0	0	0	0	0	1
RightHandThumb1	0	0	0	0	0	0	1
RightHandThumb2	0	0	0	0	0	0	1
RightHandThumb3	0	0	0	0	0	0	1
RightHandThumb4	0	0	0	0	0	0	1
LeftUpLeg	0	0	0	0	0	0	1
LeftLeg	0	0	0	0	0	0	1
LeftFoot	0	0	0	0	0	0	1
LeftToeBase	0	0	0	0	0	0	1
RightUpLeg	0	0	0	0	0	0	1
RightLeg	0	0	0	0	0	0	1
RightFoot	0	0	0	0	0	0	1
RightToeBase	0	0	0	0	0	0	1
[Hips]
4	-10.60709763	1027.287354	-18.3515377	-2.329948664	8.182969093	-3.008840561	1.0
5	-19.63605499	1029.848633	-31.18605042	-2.392871141	12.1949358	-2.598957539	1.0
6	-28.24806213	1030.056274	-43.23715591	-2.590948105	15.51708984	-2.527590513	1.0
[Spine]
4	0	101.8159943	1.315000057	3.904222727	2.117254496	3.36917448	1.0
5	0	101.8159943	1.315000057	4.057267189	2.412454128	2.765284061	1.0
6	0	101.8159943	1.315000057	4.054751873	2.72430706	2.170722485	1.0
[Spine1]
4	0	100.8349991	-10.00800037	1.675785184	0.8512511849	2.240055323	1.0
5	0	100.8349991	-10.00800037	1.854099035	1.127766132	2.612916708	1.0
6	0	100.8349991	-10.00800037	1.901450634	1.412438512	3.040534735	1.0
[Spine2]
4	0	91	-13.73399925	1.630575895	0.8506475687	1.696067095	1.0
5	0	91	-13.73399925	1.7978369	1.096027493	1.703881979	1.0
6	0	91	-13.73399925	1.830506325	1.341060638	1.709919691	1.0
[Neck]
4	0	166.7169952	-25.16200066	6.546943188	4.995514393	-1.056927681	1.0
5	0	166.7169952	-25.16200066	7.249415398	7.095169544	-1.356906652	1.0
6	0	166.7169952	-25.16200066	7.750659943	8.49036026	-1.425705075	1.0
[Head]
4	0	96.17900085	16.84999847	-6.88836956	13.80400753	-4.875514984	1.0
5	0	96.17900085	16.84999847	-5.406569958	18.94277	-6.137550831	1.0
6	0	96.17900085	16.84999847	-4.013096333	22.93235779	-6.953149796	1.0
[LeftEye]
4	30.6760006	64.09500122	92.83599854	0	0	0	1.0
5	30.6760006	64.09500122	92.83599854	0	0	0	1.0
6	30.6760006	64.09500122	92.83599854	0	0	0	1.0
[RightEye]
4	-30.6760006	64.09500122	92.83499908	0	0	0	1.0
5	-30.6760006	64.09500122	92.83499908	0	0	0	1.0
6	-30.6760006	64.09500122	92.83499908	0	0	0	1.0
[LeftShoulder]
4	45.70400238	109.4599991	-26.28000069	5.141444683	-17.15068054	-14.74440002	1.0
5	45.70400238	109.4599991	-26.28000069	5.185788155	-17.05387306	-15.28515816	1.0
6	45.70400238	109.4599991	-26.28000069	5.222729683	-16.88038635	-15.84954643	1.0
[LeftArm]
4	105.923996	-5.24600029	-22.32099915	17.80347443	-9.719356537	-66.41197205	1.0
5	105.923996	-5.24600029	-22.32099915	16.33064842	-10.70928478	-64.24914551	1.0
6	105.923996	-5.24600029	-22.32099915	14.74765205	-10.08172607	-62.04800415	1.0
[LeftForeArm]
4	278.414978	-0.0009999999311	0	7.433533824e-07	-3.903616667	-0.0001996270003	1.0
5	278.414978	-0.0009999999311	0	-3.818077403e-06	-6.288735867	-0.000193152533	1.0
6	278.414978	-0.0009999999311	0	-1.139390747e-06	-10.02889729	-0.0001889265986	1.0
[LeftHand]
4	283.2879944	0	0	-26.44143105	-3.003135443	3.369635582	1.0
5	283.2879944	0	0	-23.7460022	-2.380260468	6.480314732	1.0
6	283.2879944	0	0	-22.33957481	-2.23930788	9.336835861	1.0
[LeftHandThumb1]
4	24.6609993	-15.75	26.8239994	-0.4889881611	2.201389551	4.818526268	1.0
5	24.6609993	-15.75	26.8239994	-0.4889881611	2.201389551	4.818526268	1.0
6	24.6609993	-15.75	26.8239994	-0.4889881611	2.201389551	4.818526268	1.0
[LeftHandThumb2]
4	32.29800034	-18.64699936	18.64699936	21.08858871	20.0919075	23.70698738	1.0
5	32.29800034	-18.64699936	18.64699936	21.51610565	20.15087318	23.87856483	1.0
6	32.29800034	-18.64699936	18.64699936	21.44915771	19.96964264	23.79379272	1.0
[LeftHandThumb3]
4	26.52600098	-15.31499958	15.31499958	-13.02816296	4.831536293	8.217205048	1.0
5	26.52600098	-15.31499958	15.31499958	-12.7131176	4.286295414	8.466742516	1.0
6	26.52600098	-15.31499958	15.31499958	-12.36618614	3.985720396	8.634861946	1.0
[LeftHandThumb4]
4	19.54599953	-11.28499985	11.28499985	0	0	0	1.0
5	19.54599953	-11.28499985	11.28499985	0	0	0	1.0
6	19.54599953	-11.28499985	11.28499985	0	0	0	1.0
[LeftHandIndex1]
4	91.09299469	-5.170999527	22.60099792	0.1704392731	-0.721051693	-8.460036278	1.0
5	91.09299469	-5.170999527	22.60099792	0.1878387779	-0.58435601	-8.902597427	1.0
6	91.09299469	-5.170999527	22.60099792	0.1998608559	-0.511849761	-9.110634804	1.0
[LeftHandIndex2]
4	36.76399994	0	0	-0.2673237622	1.747157574	-17.39689445	1.0
5	36.76399994	0	0	-0.2673248053	1.74715662	-17.39689445	1.0
6	36.76399994	0	0	-0.2673271	1.74716258	-17.39689636	1.0
[LeftHandIndex3]
4	28.83100128	0	0	-0.05772399902	0.8194006681	-8.058799744	1.0
5	28.83100128	0	0	-0.05771984905	0.8193989992	-8.058785439	1.0
6	28.83100128	0	0	-0.05772510171	0.8193977475	-8.05879879	1.0
[LeftHandIndex4]
4	23.92700005	0	0	0	0	0	1.0
5	23.92700005	0	0	0	0	0	1.0
6	23.92700005	0	0	0	0	0	1.0
[LeftHandMiddle1]
4	95.33399963	0	0	-0.8609374166	2.77076292	-16.69023705	1.0
5	95.33399963	0	0	-0.8905300498	2.958880424	-17.11323357	1.0
6	95.33399963	0	0	-0.9023196101	3.077096939	-17.28007698	1.0
[LeftHandMiddle2]
4	36.98199844	0	0	-0.2705218196	1.757325172	-17.50144577	1.0
5	36.98199844	0	0	-0.2717500627	1.761219621	-17.54153061	1.0
6	36.98199844	0	0	-0.2715337873	1.760539532	-17.53447723	1.0
[LeftHandMiddle3]
4	29.50900078	0	0	-0.3022666574	1.854953289	-18.50866127	1.0
5	29.50900078	0	0	-0.3035462499	1.858762383	-18.54810905	1.0
6	29.50900078	0	0	-0.3033113778	1.858052969	-18.54080582	1.0
[LeftHandMiddle4]
4	28.3390007	0	0	0	0	0	1.0
5	28.3390007	0	0	0	0	0	1.0
6	28.3390007	0	0	0	0	0	1.0
[LeftHandRing1]
4	91.04499817	-0.4390000105	-18.65100098	-1.235895991	3.658991098	-21.83439255	1.0
5	91.04499817	-0.4390000105	-18.65100098	-1.260749102	3.762811661	-22.15744591	1.0
6	91.04499817	-0.4390000105	-18.65100098	-1.273624897	3.791847706	-22.3244381	1.0
[LeftHandRing2]
4	31.54000092	0	0	-0.3876423538	2.09262085	-20.98700333	1.0
5	31.54000092	0	0	-0.3877318203	2.092853308	-20.98942375	1.0
6	31.54000092	0	0	-0.3876250684	2.092584848	-20.98654556	1.0
[LeftHandRing3]
4	29.37700081	0	0	-0.2841116488	1.799832344	-17.93927574	1.0
5	29.37700081	0	0	-0.2841798365	1.800049067	-17.94150162	1.0
6	29.37700081	0	0	-0.2840859294	1.799754262	-17.93851089	1.0
[LeftHandRing4]
4	26.47500038	0	0	0	0	0	1.0
5	26.47500038	0	0	0	0	0	1.0
6	26.47500038	0	0	0	0	0	1.0
[LeftHandPinky1]
4	80.77799988	-4.887000084	-38.06099701	-1.71844101	5.605420113	-27.58635712	1.0
5	80.77799988	-4.887000084	-38.06099701	-1.717527747	5.785854816	-27.78919792	1.0
6	80.77799988	-4.887000084	-38.06099701	-1.71650064	5.893075466	-27.84568596	1.0
[LeftHandPinky2]
4	36	0	0	-0.2682334483	1.750059485	-17.42672539	1.0
5	36	0	0	-0.2682335377	1.750061631	-17.42670059	1.0
6	36	0	0	-0.2682351768	1.750058174	-17.42671776	1.0
[LeftHandPinky3]
4	21.14200211	0	0	-0.2414996475	1.662532926	-16.52887535	1.0
5	21.14200211	0	0	-0.2414998412	1.662531853	-16.52887917	1.0
6	21.14200211	0	0	-0.2414999306	1.662529588	-16.52887154	1.0
[LeftHandPinky4]
4	19.75699997	0	0	0	0	0	1.0
5	19.75699997	0	0	0	0	0	1.0
6	19.75699997	0	0	0	0	0	1.0
[RightShoulder]
4	-45.70000076	109.4620056	-26.28000069	5.13939476	14.52212429	14.78871536	1.0
5	-45.70000076	109.4620056	-26.28000069	5.113294601	14.42965221	14.75967026	1.0
6	-45.70000076	109.4620056	-26.28000069	5.100564957	14.36623669	14.81858921	1.0
[RightArm]
4	-105.9280014	-5.248000145	-22.32099915	30.07248688	-0.3781403601	60.06900406	1.0
5	-105.9280014	-5.248000145	-22.32099915	29.86393929	-1.47197628	58.84799957	1.0
6	-105.9280014	-5.248000145	-22.32099915	29.8170414	-2.568322182	57.44587708	1.0
[RightForeArm]
4	-278.414978	0	0	-6.73587283e-06	8.455535889	1.651867933e-05	1.0
5	-278.414978	0	0	-2.967660521e-06	9.175620079	-6.481964192e-06	1.0
6	-278.414978	0	0	-9.161261914e-06	9.89390564	-1.217170484e-05	1.0
[RightHand]
4	-283.2879944	0	0.0009999999311	-21.90846443	0.0292543266	6.1173172	1.0
5	-283.2879944	0	0.0009999999311	-22.63323021	-1.5108881	5.932986736	1.0
6	-283.2879944	0	0.0009999999311	-23.34274483	-3.343987942	5.814721584	1.0
[RightHandPinky1]
4	-80.76699829	-4.885000229	-38.06000137	-1.589545727	-4.364654064	26.81437111	1.0
5	-80.76699829	-4.885000229	-38.06000137	-1.606133819	-4.289523602	26.85806465	1.0
6	-80.76699829	-4.885000229	-38.06000137	-1.638943315	-4.16655159	26.99816322	1.0
[RightHandPinky2]
4	-36	0	0.0009999999311	-0.2146189958	-1.394755006	17.51402283	1.0
5	-36	0	0.0009999999311	-0.21706976	-1.402507067	17.61446381	1.0
6	-36	0	0.0009999999311	-0.2175074816	-1.403899431	17.63280487	1.0
[RightHandPinky3]
4	-21.14200211	0	0	-0.193504855	-1.325951099	16.60527229	1.0
5	-21.14200211	0	0	-0.1957930028	-1.333605051	16.70401764	1.0
6	-21.14200211	0	0	-0.1961567253	-1.334801435	16.71940422	1.0
[RightHandPinky4]
4	-19.75699997	0	0	0	0	0	1.0
5	-19.75699997	0	0	0	0	0	1.0
6	-19.75699997	0	0	0	0	0	1.0
[RightHandRing1]
4	-91.03599548	-0.4390000105	-18.65100098	-1.062715173	-2.822040796	20.74394608	1.0
5	-91.03599548	-0.4390000105	-18.65100098	-1.06482029	-2.809150934	20.77594948	1.0
6	-91.03599548	-0.4390000105	-18.65100098	-1.071279645	-2.76350832	20.87448311	1.0
[RightHandRing2]
4	-31.54000092	0	0	-0.3066574037	-1.658688307	20.94815826	1.0
5	-31.54000092	0	0	-0.3066589832	-1.658669353	20.9481926	1.0
6	-31.54000092	0	0	-0.3066627085	-1.658663988	20.94816971	1.0
[RightHandRing3]
4	-29.37700081	0	0	-0.2245170027	-1.425783992	17.89686966	1.0
5	-29.37700081	0	0	-0.2245255858	-1.425799131	17.89684486	1.0
6	-29.37700081	0	0	-0.224522382	-1.425780654	17.89686203	1.0
[RightHandRing4]
4	-26.47500038	0	0	0	0	0	1.0
5	-26.47500038	0	0	0	0	0	1.0
6	-26.47500038	0	0	0	0	0	1.0
[RightHandMiddle1]
4	-95.32500458	0	0	-0.7170624733	-2.132344007	15.27123451	1.0
5	-95.32500458	0	0	-0.7175284624	-2.147670031	15.27869034	1.0
6	-95.32500458	0	0	-0.7222217321	-2.159983397	15.35683823	1.0
[RightHandMiddle2]
4	-36.98199844	0	0	-0.2136950195	-1.391844988	17.4566288	1.0
5	-36.98199844	0	0	-0.214123711	-1.393204927	17.4744339	1.0
6	-36.98199844	0	0	-0.2150484174	-1.39614296	17.51222801	1.0
[RightHandMiddle3]
4	-29.50900078	0	0	-0.2388993353	-1.4715662	18.46590614	1.0
5	-29.50900078	0	0	-0.2393506318	-1.472927928	18.48359489	1.0
6	-29.50900078	0	0	-0.2403200418	-1.475844145	18.52134514	1.0
[RightHandMiddle4]
4	-28.3390007	0	0.0009999999311	0	0	0	1.0
5	-28.3390007	0	0.0009999999311	0	0	0	1.0
6	-28.3390007	0	0.0009999999311	0	0	0	1.0
[RightHandIndex1]
4	-91.08300018	-5.167999744	22.60099792	0.1623825878	1.25311172	7.102720261	1.0
5	-91.08300018	-5.167999744	22.60099792	0.1595459878	1.25057292	7.146873951	1.0
6	-91.08300018	-5.167999744	22.60099792	0.1385684609	1.270989895	7.250684261	1.0
[RightHandIndex2]
4	-36.76399994	0	0	-0.2116923481	-1.385472298	17.37421417	1.0
5	-36.76399994	0	0	-0.2125625759	-1.388226748	17.40976143	1.0
6	-36.76399994	0	0	-0.2131121755	-1.390005946	17.43293571	1.0
[RightHandIndex3]
4	-28.83100128	0	0	-0.04538880289	-0.647434175	8.020069122	1.0
5	-28.83100128	0	0	-0.04578160495	-0.6502835155	8.055630684	1.0
6	-28.83100128	0	0	-0.04605505988	-0.6521335244	8.078731537	1.0
[RightHandIndex4]
4	-23.92700005	0	0	0	0	0	1.0
5	-23.92700005	0	0	0	0	0	1.0
6	-23.92700005	0	0	0	0	0	1.0
[RightHandThumb1]
4	-24.64799881	-15.72700024	26.82600021	-1.658465981	-0.2891423702	-4.221325874	1.0
5	-24.64799881	-15.72700024	26.82600021	-1.658465981	-0.2891423702	-4.221325874	1.0
6	-24.64799881	-15.72700024	26.82600021	-1.658465981	-0.2891423702	-4.221325874	1.0
[RightHandThumb2]
4	-32.29800034	-18.64699936	18.64699936	22.40321922	-24.06604004	-24.2597332	1.0
5	-32.29800034	-18.64699936	18.64699936	22.46349144	-24.14180374	-24.26365089	1.0
6	-32.29800034	-18.64699936	18.64699936	22.41068077	-24.10403824	-24.22854805	1.0
[RightHandThumb3]
4	-26.52600098	-15.31399918	15.31399918	-14.49308968	-6.731814384	-11.36926079	1.0
5	-26.52600098	-15.31399918	15.31399918	-14.49319363	-6.731523037	-11.36925411	1.0
6	-26.52600098	-15.31399918	15.31399918	-14.49324036	-6.73142767	-11.36924362	1.0
[RightHandThumb4]
4	-19.54599953	-11.28499985	11.28499985	0	0	0	1.0
5	-19.54599953	-11.28499985	11.28499985	0	0	0	1.0
6	-19.54599953	-11.28499985	11.28499985	0	0	0	1.0
[LeftUpLeg]
4	82.07800293	-67.51699829	-15.99599934	-19.56857681	36.22327042	5.76317358	1.0
5	82.07800293	-67.51699829	-15.99599934	-18.92722702	36.32172775	7.580845833	1.0
6	82.07800293	-67.51699829	-15.99599934	-17.47370911	36.29085922	9.697950363	1.0
[LeftLeg]
4	0	-443.7049866	2.845999956	23.32335472	-8.303500175	-3.343369007	1.0
5	0	-443.7049866	2.845999956	24.82507133	1.342213869	-1.422057271	1.0
6	0	-443.7049866	2.845999956	26.35835838	5.070358276	-1.049113274	1.0
[LeftFoot]
4	0	-444.2789917	-29.8219986	3.617834806	-1.643611789	-13.10094833	1.0
5	0	-444.2789917	-29.8219986	4.269005299	7.245540619	-8.157132149	1.0
6	0	-444.2789917	-29.8219986	4.296280861	24.07314873	-4.111515045	1.0
[LeftToeBase]
4	0	-87.28699493	107.1060028	-3.78534317	0.002271708101	0.03481308743	1.0
5	0	-87.28699493	107.1060028	-4.098078728	2.145346843e-05	-3.924239081e-06	1.0
6	0	-87.28699493	107.1060028	-4.660983086	-4.497726138e-07	4.625209442e-07	1.0
[RightUpLeg]
4	-82.07800293	-67.51699829	-15.99599934	-6.414046288	-24.68166351	4.148926735	1.0
5	-82.07800293	-67.51699829	-15.99599934	-6.388110638	-28.85167694	4.378283501	1.0
6	-82.07800293	-67.51699829	-15.99599934	-7.024940014	-32.20018768	4.933511257	1.0
[RightLeg]
4	0	-443.7049866	2.861999989	14.93972874	-8.833205223	-5.696916103	1.0
5	0	-443.7049866	2.861999989	13.30526733	-8.933849335	-5.423713207	1.0
6	0	-443.7049866	2.861999989	13.12064648	-8.938532829	-5.394893646	1.0
[RightFoot]
4	0	-444.2770081	-29.83799934	-6.78301096	-1.494092345	2.769584656	1.0
5	0	-444.2770081	-29.83799934	-5.826956749	-1.438150287	1.90375495	1.0
6	0	-444.2770081	-29.83799934	-5.558513641	-1.480869293	1.209649324	1.0
[RightToeBase]
4	0	-87.28699493	107.1060028	-7.282879829	-4.982781775e-06	-7.936321254e-07	1.0
5	0	-87.28699493	107.1060028	-7.282878876	-1.707962292e-05	2.186916845e-06	1.0
6	0	-87.28699493	107.1060028	-7.282875538	9.072604371e-06	-6.433904218e-07	1.0
[EndOfFile]
